<svg width="1440" height="686" viewBox="0 0 1440 686" fill="none" xmlns="http://www.w3.org/2000/svg">
<g style="mix-blend-mode:luminosity" opacity="0.6" clip-path="url(#clip0_634_24645)">
<g clip-path="url(#clip1_634_24645)">
<path d="M55.6087 -177.444C55.6087 -177.444 1881.46 1152.28 2445.69 1085.45C2639.22 1062.53 2956.93 973.926 2729.08 512.456C1836.91 -1294.48 3881.28 -359.325 4061.74 -832.695" stroke="#005A9B" stroke-width="0.75" stroke-miterlimit="10"/>
<path d="M50.1947 -164.265C50.1947 -164.265 1883.6 1153.71 2449.59 1079.19C2643.16 1053.99 2955.13 962.049 2728.04 501.718C2722.74 490.956 2717.52 480.275 2712.39 469.723C1859.23 -1295.15 3903.25 -346.411 4061.39 -831.062" stroke="#005A9B" stroke-width="0.7554" stroke-miterlimit="10"/>
<path d="M44.7502 -151.103C44.7502 -151.103 1885.75 1155.15 2453.42 1072.89C2647.06 1045.37 2953.27 950.137 2726.91 490.899C2721.62 480.137 2716.4 469.456 2711.26 458.857C1857.28 -1306.91 3924.11 -330.731 4061.05 -829.459" stroke="#005A9B" stroke-width="0.7609" stroke-miterlimit="10"/>
<path d="M39.3528 -137.955C39.3528 -137.955 1887.76 1155.4 2457.31 1066.58C2650.92 1036.39 2951.48 938.229 2725.86 480.114C2720.53 469.335 2715.33 458.624 2710.18 448.024C1855.3 -1318.69 3944.97 -315.052 4060.71 -827.857" stroke="#005A9B" stroke-width="0.7663" stroke-miterlimit="10"/>
<path d="M33.9081 -124.792C33.9081 -124.792 1889.83 1156.47 2461.15 1060.29C2654.79 1027.68 2949.62 926.318 2724.75 469.342C2719.42 458.563 2714.22 447.852 2709.06 437.205C1853.3 -1330.43 3965.79 -299.36 4060.34 -826.271" stroke="#005A9B" stroke-width="0.7717" stroke-miterlimit="10"/>
<path d="M28.4938 -111.613C28.4938 -111.613 1891.94 1157.61 2465.04 1054.02C2658.73 1019.01 2947.82 914.441 2723.72 458.574C2718.41 447.765 2713.18 437.037 2708.02 426.39C1851.36 -1342.19 3986.68 -283.663 4060 -824.668" stroke="#005A9B" stroke-width="0.7772" stroke-miterlimit="10"/>
<path d="M23.0653 -98.4813C23.0653 -98.4813 1893.99 1158.72 2468.9 1047.7C2662.59 1010.3 2945.98 902.546 2722.6 447.755C2717.29 436.946 2712.06 426.218 2706.89 415.523C1849.41 -1353.95 4007.54 -267.984 4059.66 -823.066" stroke="#005A9B" stroke-width="0.7826" stroke-miterlimit="10"/>
<path d="M17.6519 -85.3024C17.6519 -85.3024 1896.1 1159.86 2472.77 1041.42C2666.48 1001.64 2944.15 890.652 2721.52 437C2716.21 426.191 2710.97 415.415 2705.78 404.752C1847.43 -1365.73 4028.38 -252.274 4059.33 -821.463" stroke="#005A9B" stroke-width="0.788" stroke-miterlimit="10"/>
<path d="M12.2063 -72.1402C12.2063 -72.1402 1898.14 1161.04 2476.6 1035.12C2670.33 992.965 2942.28 878.741 2720.43 426.198C2715.12 415.389 2709.88 404.613 2704.68 393.902C1845.48 -1377.49 4049.24 -236.595 4058.96 -819.877" stroke="#005A9B" stroke-width="0.7935" stroke-miterlimit="10"/>
<path d="M6.80897 -58.9913C6.80897 -58.9913 1900.24 1162.21 2480.49 1028.81C2674.23 984.276 2940.47 866.816 2719.37 415.413C2714.08 404.574 2708.84 393.798 2703.6 383.07C1843.5 -1389.26 4070.13 -220.899 4058.62 -818.275" stroke="#005A9B" stroke-width="0.7989" stroke-miterlimit="10"/>
<path d="M1.36449 -45.8293C1.36449 -45.8293 1902.27 1163.43 2484.35 1022.53C2678.12 975.616 2938.66 854.939 2718.26 404.641C2712.97 393.802 2707.7 383.009 2702.48 372.251C1841.53 -1400.99 4090.97 -205.189 4058.28 -816.672" stroke="#005A9B" stroke-width="0.8043" stroke-miterlimit="10"/>
<path d="M-4.03284 -32.6804C-4.03284 -32.6804 1904.37 1164.64 2488.24 1016.22C2682.03 966.974 2936.85 843.015 2717.22 393.826C2711.93 382.987 2706.67 372.164 2701.43 361.389C1839.56 -1412.77 4111.83 -189.509 4057.91 -815.086" stroke="#005A9B" stroke-width="0.8098" stroke-miterlimit="10"/>
<path d="M-9.47751 -19.5181C-9.47751 -19.5181 1906.43 1165.87 2492.06 1009.96C2685.87 958.328 2934.97 831.134 2716.1 383.085C2710.78 372.228 2705.52 361.406 2700.29 350.6C1837.61 -1424.53 4132.68 -173.8 4057.57 -813.483" stroke="#005A9B" stroke-width="0.8152" stroke-miterlimit="10"/>
<path d="M-14.9221 -6.35635C-14.9221 -6.35635 1908.5 1167.15 2495.9 1003.66C2689.73 949.699 2933.13 819.239 2714.99 372.313C2709.69 361.426 2704.43 350.603 2699.15 339.811C1835.63 -1436.31 4153.54 -158.121 4057.23 -811.881" stroke="#005A9B" stroke-width="0.8207" stroke-miterlimit="10"/>
<path d="M-20.3191 6.79245C-20.3191 6.79245 1910.58 1168.43 2499.78 997.349C2693.65 941.056 2931.32 807.314 2713.92 361.48C2708.61 350.594 2703.32 339.754 2698.06 328.931C1833.66 -1448.03 4174.4 -142.442 4056.88 -810.248" stroke="#005A9B" stroke-width="0.8261" stroke-miterlimit="10"/>
<path d="M-25.7636 19.9546C-25.7636 19.9546 1912.66 1169.75 2503.65 991.07C2697.55 932.444 2929.48 795.42 2712.84 350.726C2707.54 339.839 2702.26 328.969 2696.97 318.129C1831.68 -1459.81 4195.24 -126.732 4056.51 -808.662" stroke="#005A9B" stroke-width="0.8315" stroke-miterlimit="10"/>
<path d="M-31.1779 33.1339C-31.1779 33.1339 1914.75 1171.08 2507.52 984.79C2701.43 923.863 2927.68 783.543 2711.76 339.971C2706.46 329.084 2701.16 318.197 2695.88 307.327C1829.72 -1471.54 4216.11 -111.005 4056.17 -807.059" stroke="#005A9B" stroke-width="0.837" stroke-miterlimit="10"/>
<path d="M-36.6057 46.266C-36.6057 46.266 1916.84 1172.41 2511.37 978.464C2705.31 915.204 2925.83 771.601 2710.69 329.139C2705.4 318.222 2700.1 307.335 2694.8 296.448C1827.76 -1483.35 4236.99 -95.3559 4055.84 -805.457" stroke="#005A9B" stroke-width="0.8424" stroke-miterlimit="10"/>
<path d="M-42.02 59.4447C-42.02 59.4447 1918.94 1173.78 2515.24 972.184C2709.19 906.621 2924 759.707 2709.58 318.367C2704.3 307.449 2698.99 296.562 2693.66 285.659C1825.76 -1495.09 4257.8 -79.6636 4055.47 -803.871" stroke="#23477E" stroke-width="0.8478" stroke-miterlimit="10"/>
<path d="M-47.4645 72.6068C-47.4645 72.6068 1920.99 1175.16 2519.08 965.888C2713.09 898.01 2922.14 747.795 2708.48 307.595C2703.19 296.678 2697.87 285.744 2692.54 274.84C1823.81 -1506.85 4278.69 -63.9674 4055.13 -802.269" stroke="#23477E" stroke-width="0.8533" stroke-miterlimit="10"/>
<path d="M-52.8619 85.7557C-52.8619 85.7557 1923.12 1176.55 2522.99 959.595C2717.02 889.415 2920.36 735.935 2707.46 296.797C2702.18 285.88 2696.86 274.946 2691.51 263.994C1821.86 -1518.61 4299.56 -48.2877 4054.79 -800.666" stroke="#23477E" stroke-width="0.8587" stroke-miterlimit="10"/>
<path d="M-58.3064 98.9179C-58.3064 98.9179 1925.23 1177.97 2526.83 953.299C2720.9 880.833 2918.5 724.024 2706.36 286.025C2701.09 275.078 2695.74 264.126 2690.39 253.175C1819.88 -1530.39 4320.4 -32.5781 4054.45 -799.063" stroke="#23477E" stroke-width="0.8641" stroke-miterlimit="10"/>
<path d="M-63.7209 112.097C-63.7209 112.097 1927.36 1179.44 2530.7 947.019C2724.78 872.251 2916.67 712.129 2705.25 275.253C2699.95 264.289 2694.63 253.354 2689.27 242.356C1817.94 -1542.15 4341.26 -16.8991 4054.08 -797.478" stroke="#23477E" stroke-width="0.8696" stroke-miterlimit="10"/>
<path d="M-69.1489 125.229C-69.1489 125.229 1929.47 1180.86 2534.55 940.693C2728.67 863.639 2914.85 700.205 2704.18 264.421C2698.88 253.457 2693.55 242.475 2688.19 231.477C1815.97 -1553.96 4362.12 -1.21956 4053.73 -795.922" stroke="#23477E" stroke-width="0.875" stroke-miterlimit="10"/>
<path d="M-74.5937 138.391C-74.5937 138.391 1931.57 1182.31 2538.42 934.413C2732.58 855.074 2913.02 688.311 2703.1 253.666C2697.8 242.702 2692.47 231.72 2687.08 220.705C1813.99 -1565.65 4382.99 14.5068 4053.39 -794.242" stroke="#23477E" stroke-width="0.8804" stroke-miterlimit="10"/>
<path d="M-80.0073 151.57C-80.0073 151.57 1933.71 1183.82 2542.29 928.134C2736.51 846.557 2911.18 676.417 2702.02 242.912C2696.74 231.917 2691.38 220.918 2685.99 209.903C1812.01 -1577.43 4403.85 30.1865 4053.07 -792.669" stroke="#23477E" stroke-width="0.8859" stroke-miterlimit="10"/>
<path d="M-85.4349 164.702C-85.4349 164.702 1935.88 1185.28 2546.14 921.807C2740.4 837.945 2909.37 664.492 2700.92 232.062C2695.64 221.067 2690.28 210.069 2684.87 199.006C1810.06 -1589.19 4424.7 45.896 4052.7 -791.084" stroke="#23477E" stroke-width="0.8913" stroke-miterlimit="10"/>
<path d="M-90.8493 177.881C-90.8493 177.881 1938.02 1186.79 2550.01 915.528C2744.31 829.381 2907.53 652.598 2699.84 221.308C2694.56 210.313 2689.22 199.284 2683.78 188.204C1808.08 -1600.97 4445.56 61.5756 4052.36 -789.481" stroke="#23477E" stroke-width="0.8967" stroke-miterlimit="10"/>
<path d="M-96.2776 191.013C-96.2776 191.013 1940.19 1188.32 2553.86 909.201C2748.22 820.816 2905.69 640.656 2698.75 210.506C2693.47 199.511 2688.1 188.465 2682.68 177.355C1806.12 -1612.7 4466.42 77.2549 4052.01 -787.848" stroke="#23477E" stroke-width="0.9022" stroke-miterlimit="10"/>
<path d="M-101.692 204.192C-101.692 204.192 1942.36 1189.86 2557.76 902.938C2752.15 812.298 2903.88 628.778 2697.72 199.737C2692.44 188.742 2687.08 177.666 2681.62 166.57C1804.14 -1624.47 4487.26 92.9641 4051.64 -786.262" stroke="#23477E" stroke-width="0.9076" stroke-miterlimit="10"/>
<path d="M-107.136 217.354C-107.136 217.354 1944.51 1191.42 2561.6 896.642C2756.06 803.733 2902.05 616.884 2696.58 188.949C2691.32 177.924 2685.93 166.83 2680.47 155.734C1802.16 -1636.25 4508.12 108.644 4051.3 -784.66" stroke="#23477E" stroke-width="0.913" stroke-miterlimit="10"/>
<path d="M-112.534 230.503C-112.534 230.503 1946.74 1192.98 2565.48 890.332C2760 795.185 2900.23 604.96 2695.52 178.164C2690.23 167.122 2684.87 156.045 2679.39 144.902C1800.21 -1648.01 4529.01 124.34 4050.96 -783.057" stroke="#23477E" stroke-width="0.9185" stroke-miterlimit="10"/>
<path d="M-117.979 243.665C-117.979 243.665 1948.93 1194.56 2569.32 884.036C2763.89 786.651 2898.37 593.049 2694.43 167.362C2689.14 156.32 2683.77 145.196 2678.29 134.052C1798.25 -1659.82 4549.84 140.002 4050.61 -781.501" stroke="#23477E" stroke-width="0.9239" stroke-miterlimit="10"/>
<path d="M-123.393 256.844C-123.393 256.844 1951.14 1196.16 2573.17 877.787C2767.82 778.134 2896.55 581.201 2693.34 156.637C2688.04 145.595 2682.67 134.471 2677.18 123.28C1796.27 -1671.51 4570.71 155.729 4050.25 -779.869" stroke="#23477E" stroke-width="0.9293" stroke-miterlimit="10"/>
<path d="M-128.82 269.976C-128.82 269.976 1953.36 1197.75 2577.05 871.477C2771.79 769.603 2894.72 569.307 2692.25 145.835C2686.97 134.763 2681.6 123.639 2676.08 112.431C1794.32 -1683.27 4591.56 171.438 4049.92 -778.266" stroke="#23477E" stroke-width="0.9348" stroke-miterlimit="10"/>
<path d="M-134.265 283.138C-134.265 283.138 1955.57 1199.35 2580.89 865.181C2775.68 761.068 2892.85 557.396 2691.16 135.033C2685.88 123.961 2680.48 112.82 2674.96 101.612C1792.34 -1695.05 4612.42 187.118 4049.58 -776.663" stroke="#23477E" stroke-width="0.9402" stroke-miterlimit="10"/>
<path d="M-139.679 296.317C-139.679 296.317 1957.83 1201.01 2584.76 858.901C2779.64 752.568 2891.02 545.502 2690.08 124.279C2684.8 113.206 2679.42 102.035 2673.87 90.8101C1790.39 -1706.81 4633.28 202.797 4049.21 -775.077" stroke="#23477E" stroke-width="0.9457" stroke-miterlimit="10"/>
<path d="M-145.107 309.449C-145.107 309.449 1960.07 1202.62 2588.61 852.575C2783.55 744.003 2889.2 533.577 2688.99 113.477C2683.71 102.404 2678.3 91.2164 2672.77 79.9609C1788.41 -1718.59 4654.12 218.507 4048.87 -773.475" stroke="#23477E" stroke-width="0.9511" stroke-miterlimit="10"/>
<path d="M-150.521 322.628C-150.521 322.628 1962.33 1204.28 2592.48 846.295C2787.5 735.502 2887.37 521.682 2687.9 102.674C2682.64 91.5713 2677.23 80.3837 2671.66 69.1113C1786.45 -1730.32 4675.01 234.203 4048.53 -771.872" stroke="#23477E" stroke-width="0.9565" stroke-miterlimit="10"/>
<path d="M-155.965 335.79C-155.965 335.79 1964.59 1205.94 2596.35 840.015C2791.46 727.002 2885.53 509.788 2686.83 91.9194C2681.56 80.8165 2676.12 69.612 2670.57 58.3092C1784.47 -1742.09 4695.87 249.882 4048.18 -770.239" stroke="#23477E" stroke-width="0.962" stroke-miterlimit="10"/>
<path d="M-161.363 348.939C-161.363 348.939 1966.89 1207.59 2600.23 833.706C2795.43 718.471 2883.75 497.881 2685.77 81.1345C2680.47 70.0147 2675.08 58.7966 2669.5 47.4769C1782.52 -1753.85 4716.72 265.592 4047.81 -768.653" stroke="#23477E" stroke-width="0.9674" stroke-miterlimit="10"/>
<path d="M-166.808 362.101C-166.808 362.101 1969.15 1209.25 2604.07 827.41C2799.35 709.954 2881.88 485.969 2684.68 70.3325C2679.38 59.2126 2673.96 47.9776 2668.38 36.6579C1780.54 -1765.63 4737.58 281.271 4047.47 -767.051" stroke="#23477E" stroke-width="0.9728" stroke-miterlimit="10"/>
<path d="M-172.205 375.25C-172.205 375.25 1972.18 1212.02 2607.96 821.1C2803.52 701.775 2880.07 474.045 2683.59 59.5307C2678.31 48.3805 2672.88 37.1455 2667.28 25.8089C1778.59 -1777.39 4758.44 296.951 4047.13 -765.448" stroke="#23477E" stroke-width="0.9783" stroke-miterlimit="10"/>
<path d="M-177.65 388.412C-177.65 388.412 1974.32 1213.45 2611.79 814.803C2807.42 693.162 2878.23 462.15 2682.48 48.7588C2677.2 37.6087 2671.78 26.3738 2666.15 14.9898C1776.63 -1789.12 4779.28 312.661 4046.79 -763.845" stroke="#23477E" stroke-width="0.9837" stroke-miterlimit="10"/>
<path d="M-183.065 401.591C-183.065 401.591 1976.47 1214.89 2615.69 808.541C2811.36 684.614 2876.43 450.273 2681.45 37.9907C2676.17 26.8405 2670.73 15.5582 2665.11 4.1742C1774.69 -1800.91 4800.17 328.357 4046.46 -762.243" stroke="#373D6E" stroke-width="0.9891" stroke-miterlimit="10"/>
<path d="M-188.492 414.723C-188.492 414.723 1978.63 1216.3 2619.54 802.214C2815.26 676.002 2874.58 438.331 2680.36 27.1885C2675.08 16.0384 2669.64 4.75618 2664.01 -6.67509C1772.7 -1812.65 4820.98 344.049 4046.09 -760.657" stroke="#373D6E" stroke-width="0.9946" stroke-miterlimit="10"/>
<path d="M-193.937 427.885C-193.937 427.885 3555.04 1789.47 2662.89 -17.4941C1770.74 -1824.46 4841.86 359.698 4045.72 -759.071" stroke="#373D6E" stroke-miterlimit="10"/>
<path d="M-171.524 446.343C-171.524 446.343 469.573 650.341 1173.72 802.857C2073.52 995.836 3042.81 1018.18 2760.38 180.447C2738.42 116.092 2709.42 46.9327 2672.82 -27.3536C1780.61 -1839.49 4851.08 357.524 4062.33 -748.038" stroke="#373D6E" stroke-miterlimit="10"/>
<path d="M-149.094 464.771C-149.094 464.771 473.427 633.184 1181.67 793.404C2081.23 993.172 3056.13 1007.31 2770.7 170.886C2748.62 106.105 2719.23 36.9278 2682.78 -37.2738C1790.47 -1854.56 4860.28 355.302 4078.9 -737.021" stroke="#373D6E" stroke-miterlimit="10"/>
<path d="M-126.681 483.229C-126.681 483.229 476.797 618.106 1189.6 783.982C2088.31 993.109 3067.81 997.029 2781.01 161.355C2758.63 96.1719 2729.01 26.9061 2692.71 -47.133C1800.37 -1869.65 4869.5 353.128 4095.5 -726.035" stroke="#373D6E" stroke-miterlimit="10"/>
<path d="M-104.281 501.64C-104.281 501.64 480.468 601.563 1197.51 774.543C2095.75 991.257 3079.42 986.718 2791.28 151.807C2768.64 86.2381 2738.78 16.9143 2702.63 -57.04C1810.26 -1884.71 4878.71 350.906 4112.08 -715.018" stroke="#373D6E" stroke-miterlimit="10"/>
<path d="M-81.8514 520.068C-81.8514 520.068 484.143 584.944 1205.46 765.091C2103.27 989.284 3091.07 976.425 2801.62 142.215C2778.71 76.2614 2748.62 6.84922 2712.59 -66.9597C1820.15 -1899.77 4887.94 348.701 4128.69 -703.984" stroke="#463561" stroke-miterlimit="10"/>
<path d="M-59.4385 538.526C-59.4385 538.526 487.83 568.371 1213.39 755.668C2110.73 987.325 3102.67 966.144 2811.92 132.684C2788.77 66.3144 2758.39 -3.14239 2722.54 -76.8496C1830.01 -1914.84 4897.15 346.48 4145.26 -692.968" stroke="#463561" stroke-miterlimit="10"/>
<path d="M-37.0086 556.954C-37.0086 556.954 491.522 551.721 1221.33 746.246C2118.2 985.288 3114.25 955.894 2822.19 123.136C2798.78 56.3811 2768.17 -13.1639 2732.44 -86.7256C1839.91 -1929.93 4906.38 344.275 4161.84 -681.951" stroke="#463561" stroke-miterlimit="10"/>
<path d="M-14.6262 575.395C-14.6262 575.395 495.152 535.036 1229.23 736.807C2125.67 983.173 3125.77 945.61 2832.47 113.588C2808.79 46.4475 2777.93 -23.1556 2742.35 -96.6326C1849.8 -1944.99 4915.57 342.084 4178.44 -670.965" stroke="#463561" stroke-miterlimit="10"/>
<path d="M7.80394 593.823C7.80394 593.823 498.83 518.338 1237.18 727.354C2133.16 981.028 3137.34 935.312 2842.79 104.027C2818.87 36.4703 2787.73 -33.2078 2752.3 -106.522C1859.69 -1960.05 4924.77 339.862 4195.02 -659.948" stroke="#463561" stroke-miterlimit="10"/>
<path d="M30.2169 612.281C30.2169 612.281 502.525 501.61 1245.11 717.932C2140.67 978.853 3148.87 925.075 2853.11 94.4654C2828.93 26.5232 2797.54 -43.2128 2762.26 -116.443C1869.55 -1975.12 4934.01 337.657 4211.62 -648.915" stroke="#463561" stroke-miterlimit="10"/>
<path d="M52.6458 630.709C52.6458 630.709 506.223 484.805 1253.04 708.51C2148.16 976.63 3160.38 914.822 2863.41 84.9346C2838.94 16.5899 2807.35 -53.2175 2772.19 -126.302C1879.46 -1990.21 4943.21 335.435 4228.2 -637.898" stroke="#463561" stroke-miterlimit="10"/>
<path d="M75.0293 649.15C75.0293 649.15 509.874 468.012 1260.95 699.07C2155.66 974.33 3171.83 904.581 2873.68 75.3864C2848.96 6.62585 2817.12 -63.2093 2782.11 -136.209C1889.34 -2005.27 4952.45 333.23 4244.8 -626.912" stroke="#463561" stroke-miterlimit="10"/>
<path d="M97.4582 667.578C97.4582 667.578 513.606 451.146 1268.9 689.618C2163.17 971.999 3183.31 894.31 2884 65.8252C2859.02 -3.32087 2826.92 -73.2615 2792.05 -146.099C1899.2 -2020.35 4961.64 331.039 4261.37 -615.895" stroke="#463561" stroke-miterlimit="10"/>
<path d="M119.871 686.036C119.871 686.036 517.291 434.293 1276.81 680.226C2170.69 969.668 3194.75 884.1 2894.29 56.3243C2869.05 -13.2072 2836.7 -83.2057 2801.98 -155.958C1909.09 -2035.4 4970.87 328.834 4277.95 -604.879" stroke="#463561" stroke-miterlimit="10"/>
<path d="M142.302 704.464C142.302 704.464 521.028 417.348 1284.77 670.773C2178.25 967.246 3206.2 873.859 2904.63 46.7325C2879.14 -23.2149 2846.54 -93.2713 2811.95 -165.878C1919 -2050.49 4980.11 326.629 4294.58 -593.876" stroke="#463561" stroke-miterlimit="10"/>
<path d="M164.684 722.905C164.684 722.905 524.716 400.418 1292.67 661.335C2185.76 964.791 3217.58 863.616 2914.9 37.185C2889.12 -33.1648 2856.28 -103.279 2821.86 -175.784C1928.89 -2065.55 4989.31 324.408 4311.14 -582.828" stroke="#592B51" stroke-miterlimit="10"/>
<path d="M187.114 741.333C187.114 741.333 528.438 383.427 1300.62 651.882C2193.34 962.262 3229.01 853.359 2925.19 27.6067C2899.16 -43.159 2866.07 -113.331 2831.78 -185.691C1938.74 -2080.63 4998.5 322.217 4327.73 -571.842" stroke="#592B51" stroke-miterlimit="10"/>
<path d="M209.527 759.791C209.527 759.791 532.191 366.453 1308.53 642.49C2200.89 959.793 3240.35 843.175 2935.48 18.1061C2909.19 -53.0451 2875.85 -123.276 2841.69 -195.52C1948.65 -2095.72 5007.7 319.995 4344.31 -560.825" stroke="#592B51" stroke-miterlimit="10"/>
<path d="M231.956 778.219C231.956 778.219 535.948 349.401 1316.48 633.038C2208.51 957.203 3251.73 832.931 2945.81 8.51424C2919.28 -63.0528 2885.67 -133.358 2851.67 -205.47C1958.54 -2110.77 5016.94 317.79 4360.89 -549.809" stroke="#592B51" stroke-miterlimit="10"/>
<path d="M254.339 796.66C254.339 796.66 539.674 332.332 1324.39 623.599C2216.05 954.609 3263.06 822.701 2956.09 -1.03364C2929.26 -73.0031 2895.43 -143.35 2861.57 -215.347C1968.4 -2125.85 5026.14 315.568 4377.5 -538.775" stroke="#592B51" stroke-miterlimit="10"/>
<path d="M276.769 815.088C276.769 815.088 543.433 315.202 1332.32 614.176C2223.66 951.971 3274.38 812.501 2966.39 -10.5645C2939.3 -82.9195 2905.24 -153.354 2871.52 -225.237C1978.28 -2140.91 5035.38 313.364 4394.09 -527.789" stroke="#592B51" stroke-miterlimit="10"/>
<path d="M299.199 833.516C299.199 833.516 547.241 298.059 1340.27 604.724C2231.3 949.273 3285.71 802.27 2976.71 -20.126C2949.38 -92.8968 2915.03 -163.376 2881.46 -235.126C1988.19 -2156 5044.57 311.172 4410.67 -516.772" stroke="#592B51" stroke-miterlimit="10"/>
<path d="M321.612 851.974C321.612 851.974 551.048 280.916 1348.2 595.302C2238.92 946.605 3297.02 792.07 2987.02 -29.6569C2959.42 -102.813 2924.84 -173.381 2891.41 -245.016C1998.08 -2171.05 5053.8 308.967 4427.25 -505.756" stroke="#592B51" stroke-miterlimit="10"/>
<path d="M344.011 870.385C344.011 870.385 554.829 263.678 1356.12 585.832C2246.56 943.829 3308.31 781.852 2997.32 -39.2656C2969.45 -112.855 2934.64 -183.433 2901.34 -254.953C2007.94 -2186.13 5063.01 306.745 4443.83 -494.739" stroke="#592B51" stroke-miterlimit="10"/>
<path d="M366.424 888.843C366.424 888.843 558.653 246.505 1364.04 576.44C2254.22 941.1 3319.56 771.696 3007.61 -48.7662C2979.47 -122.741 2944.43 -193.408 2911.27 -264.812C2017.83 -2201.19 5072.21 304.524 4460.43 -483.706" stroke="#592B51" stroke-miterlimit="10"/>
<path d="M388.854 907.271C388.854 907.271 562.498 229.224 1371.99 566.987C2261.91 938.311 3330.84 761.479 3017.9 -58.3448C2989.52 -132.735 2954.18 -203.447 2921.19 -274.72C2027.73 -2216.28 5081.45 302.319 4477.03 -472.72" stroke="#592B51" stroke-miterlimit="10"/>
<path d="M411.267 925.729C411.267 925.729 566.326 211.973 1379.92 557.565C2269.59 935.474 3342.06 751.305 3028.2 -67.8759C2999.53 -142.669 2963.99 -213.452 2931.14 -284.609C2037.59 -2231.35 5090.63 300.127 4493.61 -461.703" stroke="#731E3C" stroke-miterlimit="10"/>
<path d="M433.666 944.14C433.666 944.14 570.157 194.644 1387.83 548.126C2277.26 932.637 3353.25 741.114 3038.47 -77.4239C3009.55 -152.633 2973.76 -223.443 2941.03 -294.486C2047.48 -2246.41 5099.87 297.923 4510.18 -450.686" stroke="#731E3C" stroke-miterlimit="10"/>
<path d="M456.079 962.598C456.079 962.598 574.049 177.349 1395.79 538.721C2285.02 929.804 3364.5 730.958 3048.83 -86.9681C3019.66 -162.593 2983.59 -233.478 2951.03 -304.389C2057.37 -2261.47 5109.07 295.701 4526.76 -439.669" stroke="#731E3C" stroke-miterlimit="10"/>
<path d="M478.509 981.026C478.509 981.026 577.961 159.947 1403.74 529.269C2292.76 926.847 3375.74 720.754 3059.15 -96.5294C3029.69 -172.557 2993.4 -243.483 2960.98 -314.278C2067.27 -2276.56 5118.31 293.496 4543.39 -428.666" stroke="#731E3C" stroke-miterlimit="10"/>
<path d="M500.922 999.484C500.922 999.484 581.84 142.605 1411.66 519.877C2300.47 923.949 3386.88 710.577 3069.42 -106.077C3039.72 -182.52 3003.18 -253.505 2970.89 -324.185C2077.13 -2291.63 5127.51 291.275 4559.97 -417.65" stroke="#731E3C" stroke-miterlimit="10"/>
<path d="M523.322 1017.89C523.322 1017.89 585.77 125.171 1419.58 510.407C2308.25 921.008 3398.05 700.417 3079.72 -115.609C3049.76 -192.437 3012.96 -263.527 2980.82 -334.045C2087.02 -2306.69 5136.7 289.083 4576.53 -406.603" stroke="#731E3C" stroke-miterlimit="10"/>
<path d="M545.734 1036.35C545.734 1036.35 589.699 107.739 1427.51 500.985C2316.04 918.037 3409.21 690.287 3090.04 -125.17C3059.8 -202.431 3022.77 -273.532 2990.78 -343.965C2096.93 -2321.78 5145.94 286.879 4593.17 -395.63" stroke="#731E3C" stroke-miterlimit="10"/>
<path d="M568.164 1054.78C568.164 1054.78 593.646 90.275 1435.46 491.532C2323.87 915.005 3420.37 680.08 3100.36 -134.731C3069.86 -212.378 3032.6 -283.567 3000.73 -353.855C2106.81 -2336.84 5155.17 284.673 4609.75 -384.613" stroke="#731E3C" stroke-miterlimit="10"/>
<path d="M590.577 1073.24C590.577 1073.24 597.64 72.7983 1443.38 482.14C2331.66 912.033 3431.51 669.98 3110.65 -144.232C3079.87 -222.312 3042.35 -293.528 3010.66 -363.714C2116.7 -2351.9 5164.39 282.499 4626.34 -373.55" stroke="#990B1D" stroke-miterlimit="10"/>
<path d="M612.976 1091.65C612.976 1091.65 601.619 55.2743 1451.3 472.671C2339.47 908.954 3442.62 659.786 3120.91 -153.827C3089.88 -232.323 3052.12 -303.597 3020.55 -373.638C2126.56 -2366.97 5173.56 280.26 4642.9 -362.58" stroke="#990B1D" stroke-miterlimit="10"/>
<path d="M635.389 1110.11C635.389 1110.11 605.6 37.7507 1459.23 463.249C2347.3 905.922 3453.71 649.623 3131.21 -163.358C3099.93 -242.239 3061.91 -313.572 3030.49 -383.527C2136.47 -2382.06 5182.8 278.056 4659.48 -351.563" stroke="#990B1D" stroke-miterlimit="10"/>
<path d="M657.819 1128.54C657.819 1128.54 609.628 20.2128 1467.16 453.826C2355.19 902.846 3464.82 639.506 3141.53 -172.919C3109.97 -252.233 3071.74 -323.607 3040.44 -393.417C2146.32 -2397.13 5192 275.834 4676.06 -340.547" stroke="#990B1D" stroke-miterlimit="10"/>
<path d="M680.249 1146.96C680.249 1146.96 613.69 2.61485 1475.11 444.374C2363.07 899.723 3475.92 629.343 3151.85 -182.481C3120.05 -262.21 3081.52 -333.629 3050.4 -403.337C2156.23 -2412.22 5201.26 273.599 4692.68 -329.544" stroke="#990B1D" stroke-miterlimit="10"/>
<path d="M702.631 1165.4C702.631 1165.4 617.704 -14.97 1483.02 434.935C2370.94 896.6 3486.96 619.192 3162.13 -192.029C3130.03 -272.161 3091.3 -343.651 3060.3 -413.214C2166.1 -2427.25 5210.44 271.408 4709.26 -318.527" stroke="#990B1D" stroke-miterlimit="10"/>
<path d="M725.061 1183.83C725.061 1183.83 621.782 -32.5982 1490.97 425.482C2378.87 893.464 3498.06 609.029 3172.45 -201.59C3140.1 -282.138 3101.11 -353.655 3070.27 -423.133C2175.98 -2442.36 5219.65 269.186 4725.86 -307.54" stroke="#990B1D" stroke-miterlimit="10"/>
<path d="M747.474 1202.29C747.474 1202.29 625.892 -50.2099 1498.88 416.09C2386.78 890.358 3509.1 598.956 3182.75 -211.121C3150.13 -292.102 3110.9 -363.677 3080.2 -432.993C2185.87 -2457.42 5228.87 267.012 4742.42 -296.493" stroke="#990B1D" stroke-miterlimit="10"/>
<path d="M769.904 1220.72C769.904 1220.72 630.937 -69.5677 1506.83 406.638C2395.67 885.492 3520.15 588.806 3193.07 -220.683C3160.19 -302.049 3120.71 -373.682 3090.16 -442.913C2195.77 -2472.5 5238.12 264.776 4759.04 -285.49" stroke="#990B1D" stroke-miterlimit="10"/>
<path d="M792.286 1239.16C792.286 1239.16 634.743 -86.7106 1514.74 397.199C2403.32 882.841 3531.15 578.669 3203.34 -230.23C3170.21 -312.012 3130.49 -383.704 3100.06 -452.789C2205.61 -2487.55 5247.31 262.585 4775.59 -274.491" stroke="#990B1D" stroke-miterlimit="10"/>
<path d="M814.716 1257.59C814.716 1257.59 638.598 -103.867 1522.67 387.776C2410.98 880.237 3542.18 568.549 3213.65 -239.762C3180.24 -321.976 3140.25 -393.695 3110 -462.679C2215.52 -2502.64 5256.51 260.363 4792.2 -263.457" stroke="#990B1D" stroke-miterlimit="10"/>
<path d="M837.13 1276.05C837.13 1276.05 642.419 -120.963 1530.6 378.354C2418.67 877.603 3496.42 579.328 3223.92 -249.309C2016.76 -2708.32 5281.09 275.374 4808.78 -252.44" stroke="#E0081F" stroke-miterlimit="10"/>
</g>
</g>
<defs>
<clipPath id="clip0_634_24645">
<rect width="1440" height="686" fill="white"/>
</clipPath>
<clipPath id="clip1_634_24645">
<rect width="4186.11" height="3415.11" fill="white" transform="translate(1288.04 -2383) rotate(29.199)"/>
</clipPath>
</defs>
</svg>
