<?xml version="1.0" encoding="UTF-8" standalone="no"?>
<svg
   xmlns:dc="http://purl.org/dc/elements/1.1/"
   xmlns:cc="http://creativecommons.org/ns#"
   xmlns:rdf="http://www.w3.org/1999/02/22-rdf-syntax-ns#"
   xmlns:svg="http://www.w3.org/2000/svg"
   xmlns="http://www.w3.org/2000/svg"
   version="1.1"
   id="svg3537"
   viewBox="0 0 279.01683 37.039831"
   height="20.453464mm"
   width="78.744751mm">
  <defs
     id="defs3539">
    <clipPath
       id="clipPath68"
       clipPathUnits="userSpaceOnUse">
      <path
         id="path70"
         d="m 0,0 595.276,0 0,841.89 L 0,841.89 0,0 Z" />
    </clipPath>
    <clipPath
       id="clipPath84"
       clipPathUnits="userSpaceOnUse">
      <path
         id="path86"
         d="m 0,0 595.276,0 0,841.89 L 0,841.89 0,0 Z" />
    </clipPath>
  </defs>
  <g
     transform="translate(-87.634447,-526.64827)"
     id="layer1">
    <g
       id="g3466"
       transform="matrix(2.733567,0,0,-2.733567,-15.545133,587.31651)">

      <g
         id="g108"
         transform="translate(37.7454,22.1938)">
        <path
           d="M 0,0 11.736,-6.776 0,-13.55 0,0 Z"
           style="fill:#ee2332;fill-opacity:1;fill-rule:nonzero;stroke:none"
           id="path110" />
      </g>
      <g
         id="g112"
         transform="translate(40.8853,14.0648)">
        <path
           d="M 0,0 8.596,1.353 -3.139,-5.421 0,0 Z"
           style="fill:#5a1018;fill-opacity:1;fill-rule:nonzero;stroke:none"
           id="path114" />
      </g>
      <g
         id="g116"
         transform="translate(40.8835,14.0648)">
        <path
           d="m 0,0 -3.138,8.129 0,-13.55 L 0,0 Z"
           style="fill:#ae1b26;fill-opacity:1;fill-rule:nonzero;stroke:none"
           id="path118" />
      </g>
      <g
         id="g120"
         transform="translate(49.4809,15.4174)">
        <path
           d="M 0,0 -11.735,6.775 -8.595,-1.353 0,0 Z"
           style="fill:#ed1b29;fill-opacity:1;fill-rule:nonzero;stroke:none"
           id="path122" />
      </g>
    </g>
  </g>
</svg>
