<svg data-name="Layer 1" xmlns="http://www.w3.org/2000/svg" viewBox="0 0 2333.94 1250.5" version="1.1" xmlns:xlink="http://www.w3.org/1999/xlink"><path d="M1658.07.11c20.52 190.5-421.57 75.17-308.21 690.57 118.09 641.1-615.96 231.39-904.07 235.95C160.96 931.14.87 1207.97.87 1207.97" style="fill:none;stroke-miterlimit:10;stroke:#00a1c4;stroke-width:.9px"></path><path d="M1658.22.65c29.15 191.48-428.76 72.98-308.81 686.58 123.94 634.01-606.43 235.81-896 241.7C169.78 934.23 8.88 1205.9 8.88 1205.9" style="fill:none;stroke-miterlimit:10;stroke:#059fc1;stroke-width:.9px"></path><path d="M1658.36 1.19c37.77 192.45-435.99 70.73-309.4 682.6 129.7 626.9-596.91 240.24-887.93 247.45-282.42 6.08-444.13 272.6-444.13 272.6" style="fill:none;stroke-miterlimit:10;stroke:#099cbe;stroke-width:.91px"></path><path d="M1658.5 1.73c46.4 193.43-443.28 68.43-309.99 678.62 135.37 619.76-587.36 245.36-879.86 253.2-281.19 7.54-443.73 268.22-443.73 268.22" style="fill:none;stroke-miterlimit:10;stroke:#0e9abb;stroke-width:.91px"></path><path d="M1658.64 2.27c55.02 194.4-450.62 66.08-310.59 674.64 140.96 612.6-577.83 250-871.79 258.95-279.98 8.52-443.34 263.85-443.34 263.85" style="fill:none;stroke-miterlimit:10;stroke:#1398b8;stroke-width:.92px"></path><path d="M1658.78 2.81c63.65 195.38-458.01 63.68-311.18 670.65 146.45 605.41-568.3 254.63-863.73 264.7-278.76 9.49-442.94 259.48-442.94 259.48" style="fill:none;stroke-miterlimit:10;stroke:#1796b5;stroke-width:.93px"></path><path d="M1658.93 3.35c72.28 196.35-465.46 61.23-311.78 666.67 151.84 598.2-558.76 259.26-855.66 270.44-277.54 10.46-442.54 255.11-442.54 255.11" style="fill:none;stroke-miterlimit:10;stroke:#1c93b2;stroke-width:.93px"></path><path d="M1659.07 3.89c80.9 197.33-472.97 58.74-312.37 662.69 157.14 590.97-549.22 263.88-847.59 276.19C222.78 954.18 56.97 1193.5 56.97 1193.5" style="fill:none;stroke-miterlimit:10;stroke:#2191af;stroke-width:.94px"></path><path d="M1659.21 4.43c89.53 198.3-480.54 56.21-312.97 658.71 162.35 583.73-539.68 268.48-839.52 281.94-275.11 12.35-441.74 246.36-441.74 246.36" style="fill:none;stroke-miterlimit:10;stroke-width:.94px;stroke:#258fac"></path><path d="M1659.35 4.97c98.15 199.28-488.17 53.63-313.56 654.72 167.46 576.47-530.14 273.08-831.45 287.69C240.45 960.65 73 1189.37 73 1189.37" style="fill:none;stroke-miterlimit:10;stroke-width:.95px;stroke:#2a8da9"></path><path d="M1659.5 5.51c106.78 200.25-495.87 51.02-314.16 650.74 172.47 569.2-520.6 277.68-823.38 293.44-272.67 14.19-440.94 237.62-440.94 237.62" style="fill:none;stroke-miterlimit:10;stroke:#2e8aa6;stroke-width:.96px"></path><path d="M1659.64 6.05c115.4 201.23-503.64 48.37-314.75 646.76C1522.26 1214.73 833.83 935.07 529.57 952c-271.45 15.1-440.55 233.24-440.55 233.24" style="fill:none;stroke-miterlimit:10;stroke-width:.96px;stroke:#3388a3"></path><path d="M1659.78 6.59c124.03 202.2-511.47 45.69-315.35 642.78C1526.61 1204 842.91 936.2 537.18 954.3c-270.23 16-440.15 228.87-440.15 228.87" style="fill:none;stroke-miterlimit:10;stroke-width:.97px;stroke:#3886a0"></path><path d="M1659.92 7.13c132.65 203.18-519.38 42.98-315.94 638.79 186.89 547.34-491.97 291.4-799.18 310.68-269.01 16.89-439.75 224.5-439.75 224.5" style="fill:none;stroke-miterlimit:10;stroke-width:.97px;stroke:#3c839d"></path><path d="M1660.06 7.67c141.28 204.15-527.37 40.25-316.53 634.81 191.5 540.05-482.43 295.95-791.11 316.43-267.79 17.76-439.35 220.13-439.35 220.13" style="fill:none;stroke-miterlimit:10;stroke-width:.98px;stroke:#41819a"></path><path d="M1660.21 8.21c149.91 205.12-535.43 37.49-317.13 630.83 196.01 532.75-472.89 300.5-783.04 322.18-266.56 18.63-438.95 215.75-438.95 215.75" style="fill:none;stroke-miterlimit:10;stroke-width:.99px;stroke:#467f97"></path><path d="M1660.35 8.75c158.53 206.1-543.56 34.71-317.72 626.85 200.41 525.46-463.34 305.04-774.97 327.93-265.34 19.49-438.55 211.38-438.55 211.38" style="fill:none;stroke-miterlimit:10;stroke-width:.99px;stroke:#4a7d94"></path><path d="M1660.49 9.29c167.16 207.07-551.78 31.92-318.32 622.86 204.72 518.18-453.8 309.56-766.91 333.68-264.12 20.34-438.16 207.01-438.16 207.01" style="fill:none;stroke-miterlimit:10;stroke:#4f7a91;stroke-width:1px"></path><path d="M1660.63 9.83c175.78 208.05-560.08 29.12-318.91 618.88 208.92 510.9-444.26 314.08-758.84 339.42-262.9 21.18-437.76 202.64-437.76 202.64" style="fill:none;stroke-miterlimit:10;stroke-width:1px;stroke:#54788e"></path><path d="M1660.77 10.37c184.41 209.02-568.47 26.31-319.51 614.9 213.03 503.64-434.71 318.59-750.77 345.17-261.68 22.01-437.36 198.26-437.36 198.26" style="fill:none;stroke-miterlimit:10;stroke-width:1.01px;stroke:#58768b"></path><path d="M1660.92 10.91c193.03 210-576.94 23.5-320.1 610.92 217.04 496.38-425.17 323.09-742.7 350.92-260.46 22.83-436.96 193.89-436.96 193.89" style="fill:none;stroke-miterlimit:10;stroke:#5d7488;stroke-width:1.02px"></path><path d="M1661.06 11.45c201.66 210.97-585.5 20.69-320.7 606.93 220.95 489.15-415.63 327.58-734.63 356.67-259.24 23.64-436.56 189.52-436.56 189.52" style="fill:none;stroke-miterlimit:10;stroke-width:1.02px;stroke:#627185"></path><path d="M1661.2 11.99c210.29 211.95-594.15 17.88-321.29 602.95C1564.67 1096.87 933.82 947 613.35 977.36c-258.02 24.44-436.16 185.15-436.16 185.15" style="fill:none;stroke-miterlimit:10;stroke:#666f82;stroke-width:1.03px"></path><path d="M1661.34 12.53c218.91 212.92-602.89 15.09-321.88 598.97 228.47 474.74-396.55 336.53-718.5 368.17-256.81 25.24-435.76 180.77-435.76 180.77" style="fill:none;stroke-miterlimit:10;stroke-width:1.03px;stroke:#6b6d7f"></path><path d="M1661.49 13.07c227.54 213.9-611.72 12.31-322.48 594.99 232.1 467.56-387.01 340.98-710.43 373.91-255.59 26.02-435.37 176.4-435.37 176.4" style="fill:none;stroke-miterlimit:10;stroke:#706a7c;stroke-width:1.04px"></path><path d="M1661.63 13.61c236.16 214.87-620.64 9.55-323.07 591 235.63 460.42-377.47 345.43-702.36 379.66-254.37 26.8-434.97 172.03-434.97 172.03" style="fill:none;stroke-miterlimit:10;stroke-width:1.05px;stroke:#746879"></path><path d="M1661.77 14.16c244.79 215.85-629.66 6.81-323.67 587.02 239.07 453.3-367.93 349.87-694.29 385.41-253.16 27.57-434.57 167.66-434.57 167.66" style="fill:none;stroke-miterlimit:10;stroke:#796676;stroke-width:1.05px"></path><path d="M1661.91 14.7c253.41 216.82-638.78 4.1-324.26 583.04 242.42 446.22-358.39 354.29-686.22 391.16-251.94 28.33-434.17 163.28-434.17 163.28" style="fill:none;stroke-miterlimit:10;stroke-width:1.06px;stroke:#7d6473"></path><path d="M1662.05 15.24c262.04 217.8-648 1.43-324.86 579.06 245.68 439.17-348.86 358.71-678.15 396.91-250.73 29.08-433.77 158.91-433.77 158.91" style="fill:none;stroke-miterlimit:10;stroke-width:1.06px;stroke:#826170"></path><path d="M1662.2 15.78c270.66 218.77-657.31-1.21-325.45 575.07C1585.61 1023 997.43 953.97 666.66 993.51c-249.52 29.83-433.37 154.54-433.37 154.54" style="fill:none;stroke-miterlimit:10;stroke:#875f6d;stroke-width:1.07px"></path><path d="M1662.34 16.32c279.29 219.75-666.73-3.8-326.05 571.09 251.96 425.18-329.79 367.51-662.02 408.4-248.3 30.56-432.98 150.17-432.98 150.17" style="fill:none;stroke-miterlimit:10;stroke:#8b5d6a;stroke-width:1.07px"></path><path d="M1662.48 16.86c287.92 220.72-676.24-6.34-326.64 567.11 254.98 418.24-320.26 371.89-653.95 414.15-247.09 31.29-432.58 145.79-432.58 145.79" style="fill:none;stroke-miterlimit:10;stroke-width:1.08px;stroke:#905a67"></path><path d="M1662.62 17.4c296.54 221.7-685.85-8.82-327.23 563.13 257.92 411.35-310.73 376.26-645.88 419.9-245.88 32.02-432.18 141.42-432.18 141.42" style="fill:none;stroke-miterlimit:10;stroke:#955864;stroke-width:1.09px"></path><path d="M1662.76 17.94c305.17 222.67-695.57-11.24-327.83 559.14 260.79 404.5-301.2 380.62-637.81 425.65-244.68 32.73-431.78 137.05-431.78 137.05" style="fill:none;stroke-miterlimit:10;stroke:#995661;stroke-width:1.09px"></path><path d="M1662.91 18.48c313.79 223.64-705.39-13.6-328.42 555.16 263.58 397.69-291.68 384.97-629.74 431.4-243.47 33.44-431.38 132.68-431.38 132.68" style="fill:none;stroke-miterlimit:10;stroke:#9e545e;stroke-width:1.1px"></path><path d="M1663.05 19.02c322.42 224.62-715.3-15.88-329.02 551.18 266.31 390.94-282.16 389.31-621.68 437.15-242.27 34.14-430.98 128.3-430.98 128.3" style="fill:none;stroke-miterlimit:10;stroke-width:1.1px;stroke:#a3515b"></path><path d="M1663.19 19.56c331.04 225.59-725.32-18.09-329.61 547.2 268.97 384.24-272.64 393.63-613.61 442.89-241.06 34.83-430.58 123.93-430.58 123.93" style="fill:none;stroke-miterlimit:10;stroke:#a74f58;stroke-width:1.11px"></path><path d="M1663.33 20.1C2003 246.67 927.89-.12 1333.13 563.31c271.58 377.59-263.12 397.94-605.54 448.64-239.86 35.51-430.19 119.56-430.19 119.56" style="fill:none;stroke-miterlimit:10;stroke:#ac4d55;stroke-width:1.12px"></path><path d="M1663.48 20.64c348.29 227.54-745.67-22.25-330.8 539.23 274.12 370.99-253.6 402.24-597.47 454.39-238.66 36.19-429.79 115.19-429.79 115.19" style="fill:none;stroke-miterlimit:10;stroke:#b14b52;stroke-width:1.12px"></path><path d="M1663.62 21.18c356.92 228.52-755.99-24.19-331.4 535.25 276.6 364.45-244.09 406.53-589.4 460.14-237.46 36.87-429.39 110.81-429.39 110.81" style="fill:none;stroke-miterlimit:10;stroke:#b5484f;stroke-width:1.13px"></path><path d="M1663.76 21.72c365.55 229.49-766.41-26.03-331.99 531.26 279.04 357.97-234.58 410.81-581.33 465.89-236.27 37.53-428.99 106.44-428.99 106.44" style="fill:none;stroke-miterlimit:10;stroke:#ba464c;stroke-width:1.13px"></path><path d="M1663.9 22.26c374.17 230.47-776.93-27.76-332.58 527.28 281.43 351.54-225.08 415.07-573.27 471.64-235.07 38.19-428.59 102.07-428.59 102.07" style="fill:none;stroke-miterlimit:10;stroke:#bf4449;stroke-width:1.14px"></path><path d="M1664.04 22.8c382.8 231.44-787.54-29.39-333.18 523.3 283.77 345.18-215.57 419.32-565.2 477.38-233.88 38.84-428.19 97.7-428.19 97.7" style="fill:none;stroke-miterlimit:10;stroke:#c34146;stroke-width:1.15px"></path><path d="M1664.19 23.34c391.42 232.42-798.25-30.89-333.77 519.32 286.07 338.87-206.07 423.56-557.13 483.13-232.69 39.49-427.8 93.32-427.8 93.32" style="fill:none;stroke-miterlimit:10;stroke-width:1.15px;stroke:#c83f43"></path><path d="M1664.33 23.88c400.05 233.39-809.05-32.28-334.37 515.33 288.33 332.63-196.58 427.78-549.06 488.88-231.5 40.13-427.4 88.95-427.4 88.95" style="fill:none;stroke-miterlimit:10;stroke:#cc3d40;stroke-width:1.16px"></path><path d="M1664.47 24.42c408.67 234.37-819.94-33.54-334.96 511.35 290.56 326.45-187.09 431.99-540.99 494.63-230.32 40.76-427 84.58-427 84.58" style="fill:none;stroke-miterlimit:10;stroke:#d13b3d;stroke-width:1.16px"></path><path d="M1664.61 24.96c417.3 235.34-830.93-34.67-335.56 507.37 292.76 320.34-177.6 436.19-532.92 500.38-229.13 41.39-426.6 80.21-426.6 80.21" style="fill:none;stroke-miterlimit:10;stroke-width:1.17px;stroke:#d6383a"></path><path d="M1664.75 25.5c425.93 236.32-841.99-35.66-336.15 503.39 294.93 314.29-168.11 440.37-524.86 506.13-227.95 42.01-426.2 75.83-426.2 75.83" style="fill:none;stroke-miterlimit:10;stroke:#da3637;stroke-width:1.18px"></path><path d="M1664.9 26.04c434.55 237.29-853.15-36.51-336.75 499.4 297.08 308.3-158.63 444.55-516.79 511.87-226.77 42.63-425.8 71.46-425.8 71.46" style="fill:none;stroke-miterlimit:10;stroke:#df3434;stroke-width:1.18px"></path><path d="M1665.04 26.58C2108.22 264.85 800.66-10.63 1327.7 522c299.21 302.39-149.27 448.13-508.72 517.62-225.66 42.88-425.4 67.09-425.4 67.09" style="fill:none;stroke-miterlimit:10;stroke-width:1.19px;stroke:#e43231"></path><path d="M1665.18 27.12c451.8 239.24-875.69-37.76-337.93 491.44 301.33 296.54-139.74 452.55-500.65 523.37-224.45 43.66-425.01 62.72-425.01 62.72" style="fill:none;stroke-miterlimit:10;stroke-width:1.19px;stroke:#e82f2e"></path><path d="M1665.32 27.66c460.43 240.22-910.56-12.5-338.53 487.46 468.35 491.84-917.19 587.46-917.19 587.46" style="fill:none;stroke-miterlimit:10;stroke:#ed2d2b;stroke-width:1.2px"></path><path d="M420.5 1105.76c-4.06-2.69 272.91-29.02 541.91-93.18 324.05-77.54 622.96-232.67 367.31-500.88C752.65 9.36 2128.37 265.84 1672.07 28.44" style="fill:none;stroke-miterlimit:10;stroke-width:1.22px;stroke:#e92d2c"></path><path d="M431.39 1108.94c-8.11-5.39 261.21-38.39 531.58-99.45 325.23-73.92 624.9-233.71 369.67-501.21C750.54 3.56 2130.99 263.8 1678.82 29.22" style="fill:none;stroke-miterlimit:10;stroke:#e52d2e;stroke-width:1.23px"></path><path d="M442.28 1112.12c-12.17-8.08 249.52-47.76 521.25-105.73 326.41-70.31 626.83-234.76 372.04-501.54-587.15-507.08 798.03-243.08 350-474.86" style="fill:none;stroke-miterlimit:10;stroke:#e12e2f;stroke-width:1.25px"></path><path d="M453.17 1115.29c-16.23-10.78 237.82-57.14 510.92-112 327.6-66.69 628.76-235.8 374.4-501.86C746.3-8.03 2136.22 259.73 1692.31 30.77" style="fill:none;stroke-miterlimit:10;stroke-width:1.26px;stroke:#dd2e30"></path><path d="M464.07 1118.47c-20.29-13.47 226.12-66.51 500.59-118.27 328.78-63.07 630.7-236.85 376.76-502.19-597.23-511.84 797.42-240.32 357.64-466.46" style="fill:none;stroke-miterlimit:10;stroke:#d92e31;stroke-width:1.28px"></path><path d="M474.96 1121.65c-24.34-16.16 214.42-75.89 490.26-124.54 329.96-59.46 632.63-237.89 379.13-502.52-602.28-514.22 797.11-238.93 361.46-462.27" style="fill:none;stroke-miterlimit:10;stroke:#d52e33;stroke-width:1.29px"></path><path d="M485.85 1124.83c-28.4-18.86 202.82-84.68 479.93-130.81 331.26-55.15 634.56-238.93 381.49-502.85-607.32-516.6 796.8-237.55 365.29-458.07" style="fill:none;stroke-miterlimit:10;stroke-width:1.31px;stroke:#d22e34"></path><path d="M496.74 1128.01c-32.46-21.55 191.12-93.99 469.6-137.08 332.44-51.45 636.5-239.98 383.85-503.18-612.35-518.98 796.5-236.17 369.11-453.87" style="fill:none;stroke-miterlimit:10;stroke-width:1.33px;stroke:#ce2e35"></path><path d="M507.64 1131.18c-36.52-24.24 179.43-103.3 459.27-143.36 333.62-47.76 638.43-241.02 386.22-503.5-617.41-521.35 796.18-234.78 372.92-449.67" style="fill:none;stroke-miterlimit:10;stroke-width:1.34px;stroke:#ca2f37"></path><path d="M518.53 1134.36c-40.57-26.94 167.73-112.61 448.94-149.63 334.8-44.07 640.36-242.07 388.58-503.83C733.61-42.83 2151.93 247.51 1732.8 35.43" style="fill:none;stroke-miterlimit:10;stroke-width:1.36px;stroke:#c62f38"></path><path d="M529.42 1137.54c-44.63-29.63 156.03-121.93 438.61-155.9 335.98-40.39 642.3-243.11 390.94-504.16-627.48-526.11 795.58-232.01 380.57-441.27" style="fill:none;stroke-miterlimit:10;stroke-width:1.37px;stroke:#c22f39"></path><path d="M540.31 1140.72c-48.69-32.33 144.32-131.25 428.28-162.17 337.16-36.71 644.23-244.16 393.31-504.49-632.53-528.48 795.26-230.63 384.39-437.07" style="fill:none;stroke-miterlimit:10;stroke-width:1.39px;stroke:#be2f3b"></path><path d="M551.2 1143.89c-52.74-35.02 132.62-140.58 417.95-168.44 338.34-33.04 646.16-245.2 395.67-504.82C727.26-60.22 2159.78 241.4 1753.04 37.76" style="fill:none;stroke-miterlimit:10;stroke-width:1.4px;stroke:#ba2f3c"></path><path d="M562.1 1147.07c-56.8-37.71 120.92-149.91 407.62-174.71 339.51-29.37 648.1-246.24 398.03-505.14C725.14-66.02 2162.4 239.36 1759.79 38.54" style="fill:none;stroke-miterlimit:10;stroke:#b62f3d;stroke-width:1.42px"></path><path d="M572.99 1150.25c-60.86-40.41 109.21-159.24 397.29-180.99 340.68-25.71 650.03-247.29 400.4-505.47-647.65-535.61 794.34-226.47 395.85-424.47" style="fill:none;stroke-miterlimit:10;stroke-width:1.44px;stroke:#b2303e"></path><path d="M583.88 1153.43c-64.92-43.1 97.5-168.58 386.96-187.26 341.85-22.06 651.96-248.33 402.76-505.8-652.69-537.99 794.03-225.09 399.68-420.28" style="fill:none;stroke-miterlimit:10;stroke-width:1.45px;stroke:#ae3040"></path><path d="M594.77 1156.61c-68.97-45.8 85.79-177.92 376.63-193.53 343.02-18.41 653.9-249.38 405.12-506.13-657.73-540.37 793.73-223.7 403.51-416.08" style="fill:none;stroke-miterlimit:10;stroke:#aa3041;stroke-width:1.47px"></path><path d="M605.67 1159.78c-73.03-48.49 74.08-187.27 366.3-199.8 344.19-14.76 655.83-250.42 407.49-506.46-662.78-542.74 793.41-222.31 407.32-411.87" style="fill:none;stroke-miterlimit:10;stroke:#a63042;stroke-width:1.48px"></path><path d="M616.56 1162.96c-77.09-51.18 62.37-196.62 355.97-206.07 345.36-11.12 657.76-251.46 409.85-506.78-667.82-545.13 793.11-220.94 411.14-407.69" style="fill:none;stroke-miterlimit:10;stroke-width:1.5px;stroke:#a23044"></path><path d="M627.45 1166.14c-81.15-53.88 50.66-205.98 345.64-212.34 346.53-7.48 659.7-252.51 412.21-507.11-672.85-547.5 792.8-219.55 414.97-403.49" style="fill:none;stroke-miterlimit:10;stroke-width:1.51px;stroke:#9f3145"></path><path d="M638.34 1169.32c-85.2-56.57 38.95-215.34 335.31-218.61 347.69-3.85 661.63-253.55 414.58-507.44-677.9-549.88 792.49-218.17 418.79-399.29" style="fill:none;stroke-miterlimit:10;stroke:#9b3146;stroke-width:1.53px"></path><path d="M649.23 1172.49c-89.26-59.26 27.25-222.35 324.98-224.89 348.85-2.97 663.56-254.6 416.94-507.77-682.94-552.24 792.19-216.77 422.62-395.08" style="fill:none;stroke-miterlimit:10;stroke-width:1.55px;stroke:#973147"></path><path d="M660.13 1175.67c-93.32-61.96 15.53-234.07 314.65-231.16 350.03 3.4 665.5-255.64 419.3-508.1-687.98-554.62 791.88-215.38 426.43-390.88" style="fill:none;stroke-miterlimit:10;stroke-width:1.56px;stroke:#933149"></path><path d="M671.02 1178.85c-97.37-64.65 3.82-243.44 304.32-237.43 351.19 7.02 667.43-256.69 421.67-508.42-693.03-557.01 791.56-214.01 430.25-386.69" style="fill:none;stroke-miterlimit:10;stroke-width:1.58px;stroke:#8f314a"></path><path d="M681.91 1182.03c-101.43-67.35-7.89-252.81 293.99-243.7 352.36 10.63 669.36-257.73 424.03-508.75-698.06-559.39 791.26-212.63 434.08-382.5" style="fill:none;stroke-miterlimit:10;stroke:#8b314b;stroke-width:1.59px"></path><path d="M692.8 1185.21c-105.49-70.04-19.6-262.19 283.66-249.97 353.53 14.24 671.3-258.77 426.39-509.08-703.1-561.77 790.96-211.25 437.91-378.3" style="fill:none;stroke-miterlimit:10;stroke-width:1.61px;stroke:#87324d"></path><path d="M703.7 1188.38c-109.55-72.73-31.31-271.57 273.33-256.24 354.7 17.85 673.23-259.82 428.75-509.41-708.15-564.14 790.65-209.85 441.72-374.09" style="fill:none;stroke-miterlimit:10;stroke-width:1.62px;stroke:#83324e"></path><path d="M714.59 1191.56c-113.6-75.43-43.02-280.96 263-262.52 355.87 21.45 675.16-260.86 431.12-509.74-713.19-566.51 790.34-208.46 445.54-369.88" style="fill:none;stroke-miterlimit:10;stroke-width:1.64px;stroke:#7f324f"></path><path d="M725.48 1194.74c-117.66-78.12-54.73-290.35 252.67-268.79 357.04 25.04 677.1-261.91 433.48-510.06C693.4-153 2201.66 208.8 1861 50.19" style="fill:none;stroke-miterlimit:10;stroke-width:1.65px;stroke:#7b3251"></path><path d="M736.37 1197.92c-121.72-80.82-66.43-299.74 242.34-275.06 358.21 28.64 679.03-262.95 435.84-510.39-723.27-571.27 789.73-205.7 453.19-361.5" style="fill:none;stroke-miterlimit:10;stroke-width:1.67px;stroke:#773252"></path><path d="M747.26 1201.1c-125.78-83.51-78.14-309.14 232.01-281.33 359.38 32.22 680.96-263.99 438.21-510.72-728.31-573.65 789.42-204.32 457.01-357.3" style="fill:none;stroke-miterlimit:10;stroke-width:1.69px;stroke:#733253"></path><path d="M758.16 1204.27c-129.83-86.2-89.85-318.54 221.69-287.6 360.55 35.81 682.9-265.04 440.57-511.05-733.37-576.02 789.1-202.93 460.82-353.1" style="fill:none;stroke-miterlimit:10;stroke-width:1.7px;stroke:#703354"></path><path d="M769.05 1207.45c-133.89-88.9-101.55-327.95 211.36-293.87 361.72 39.39 684.83-266.08 442.93-511.38-738.4-578.4 788.79-201.55 464.65-348.9" style="fill:none;stroke-miterlimit:10;stroke-width:1.72px;stroke:#6c3356"></path><path d="M779.94 1210.63c-137.95-91.59-113.26-337.35 201.03-300.15 362.9 42.96 686.76-267.13 445.3-511.7C682.82-182 2214.75 198.62 1894.73 54.08" style="fill:none;stroke-miterlimit:10;stroke-width:1.73px;stroke:#683357"></path><path d="M790.83 1213.81c-142-94.28-124.96-346.76 190.7-306.42 364.07 46.54 688.7-268.17 447.66-512.03C680.7-187.8 2217.37 196.58 1901.48 54.85" style="fill:none;stroke-miterlimit:10;stroke:#643358;stroke-width:1.75px"></path><path d="M801.73 1216.98C655.67 1120 665.07 860.8 982.1 904.29c365.25 50.11 690.63-269.22 450.02-512.36-753.53-585.53 787.87-197.39 476.11-336.3" style="fill:none;stroke-miterlimit:10;stroke-width:1.76px;stroke:#60335a"></path><path d="M812.62 1220.16c-150.12-99.67-148.36-365.6 170.04-318.96 366.43 53.67 692.56-270.26 452.39-512.69-758.58-587.91 787.55-196 479.93-332.1" style="fill:none;stroke-miterlimit:10;stroke-width:1.78px;stroke:#5c345b"></path><path d="M823.51 1223.34c-154.18-102.37-160.06-375.02 159.71-325.23 367.61 57.23 694.5-271.3 454.75-513.02-763.61-590.28 787.25-194.62 483.75-327.91" style="fill:none;stroke-miterlimit:10;stroke-width:1.8px;stroke:#58345c"></path><path d="M834.4 1226.52c-158.23-105.06-171.76-384.44 149.38-331.5 368.79 60.79 696.43-272.35 457.11-513.34-768.65-592.67 786.95-193.25 487.58-323.72" style="fill:none;stroke-miterlimit:10;stroke-width:1.81px;stroke:#54345d"></path><path d="M845.3 1229.7c-162.29-107.75-183.46-393.87 139.05-337.77 369.97 64.35 698.36-273.39 459.48-513.67-773.71-595.05 786.63-191.87 491.39-319.52" style="fill:none;stroke-miterlimit:10;stroke:#50345f;stroke-width:1.83px"></path><path d="M856.19 1232.87c-166.35-110.45-195.15-403.3 128.72-344.05 371.16 67.9 700.3-274.44 461.84-514-778.74-597.41 786.32-190.46 495.22-315.31" style="fill:none;stroke-miterlimit:10;stroke:#4c3460;stroke-width:1.84px"></path><path d="M867.08 1236.05C696.67 1122.91 660.36 822.7 985.47 885.73c372.48 70.73 702.23-275.48 464.2-514.33-783.78-599.79 786.02-189.08 499.04-311.11" style="fill:none;stroke-miterlimit:10;stroke:#483461;stroke-width:1.86px"></path><path d="M877.97 1239.23C703.51 1123.39 659.55 816.5 986.03 882.64c373.66 74.35 704.16-276.53 466.57-514.66-788.82-602.17 785.71-187.7 502.86-306.91" style="fill:none;stroke-miterlimit:10;stroke-width:1.87px;stroke:#443563"></path><path d="M888.86 1242.41c-178.52-118.53-230.12-432.1 97.73-362.86 374.84 77.96 706.1-277.57 468.93-514.98-793.86-604.56 785.41-186.32 506.69-302.72" style="fill:none;stroke-miterlimit:10;stroke-width:1.89px;stroke:#403564"></path><path d="M899.76 1245.58c-182.58-121.22-241.82-441.48 87.4-369.13 376.03 81.58 708.03-278.61 471.29-515.31-798.91-606.93 785.1-184.93 510.51-298.52" style="fill:none;stroke-miterlimit:10;stroke-width:1.91px;stroke:#3d3565"></path><path d="M910.65 1248.76c-186.63-123.92-253.52-450.85 77.07-375.4 377.21 85.2 709.96-279.66 473.66-515.64-803.95-609.3 784.78-183.55 514.32-294.32" style="fill:none;stroke-miterlimit:10;stroke-width:1.92px;stroke:#393567"></path><path d="M921.54 1251.94c-190.69-126.61-265.22-460.23 66.74-381.68 378.39 88.81 711.9-280.7 476.02-515.97-808.99-611.68 784.48-182.16 518.15-290.12" style="fill:none;stroke-miterlimit:10;stroke-width:1.94px;stroke:#353568"></path><path d="M932.43 1255.12c-194.75-129.3-276.91-469.6 56.41-387.95 379.57 92.43 713.83-281.75 478.38-516.3-814.03-614.06 784.18-180.78 521.97-285.92" style="fill:none;stroke-miterlimit:10;stroke-width:1.95px;stroke:#313569"></path><path d="M943.33 1258.3c-198.81-132-288.61-478.97 46.08-394.22 380.75 96.04 715.76-282.79 480.75-516.62-819.07-616.43 783.87-179.39 525.8-281.72" style="fill:none;stroke-miterlimit:10;stroke:#2d366a;stroke-width:1.97px"></path><path d="M954.22 1261.47c-202.86-134.69-300.31-488.35 35.75-400.49 381.93 99.66 717.7-283.83 483.11-516.95-824.11-618.81 783.56-178.01 529.62-277.52" style="fill:none;stroke-miterlimit:10;stroke:#29366c;stroke-width:1.98px"></path><path d="M965.11 1264.65c-206.92-137.39-312.01-497.72 25.42-406.76 383.11 103.28 719.63-284.88 485.47-517.28-829.15-621.19 783.25-176.62 533.44-273.33" style="fill:none;stroke-miterlimit:10;stroke-width:2px;stroke:#25366d"></path></svg>