<svg width="1440" height="666" viewBox="0 0 1440 666" fill="none" xmlns="http://www.w3.org/2000/svg">
<g opacity="0.6" clip-path="url(#clip0_556_7162)">
<g clip-path="url(#clip1_556_7162)">
<g style="mix-blend-mode:luminosity" opacity="0.6">
<path d="M-1252.98 -101.969C-1252.98 -101.969 822.988 788.117 1358.2 597.412C1541.78 532.005 1831.81 374.919 1506.98 -24.2781C235.096 -1587.38 2436.3 -1130.59 2506.9 -1632.25" stroke="#990B1D" stroke-width="0.75" stroke-miterlimit="10"/>
<path d="M-1255.33 -87.9153C-1255.33 -87.9153 825.397 789.041 1360.6 590.44C1543.71 522.795 1827.41 363.741 1503.57 -34.5134C1496.02 -43.8277 1488.55 -53.0794 1481.2 -62.2252C256.7 -1593 2460.59 -1122.89 2506.91 -1630.58" stroke="#990B1D" stroke-width="0.7554" stroke-miterlimit="10"/>
<path d="M-1257.71 -73.8723C-1257.71 -73.8723 827.807 789.964 1362.94 583.447C1545.6 513.531 1822.94 352.542 1500.07 -44.8125C1492.52 -54.1268 1485.05 -63.3786 1477.68 -72.5675C252.184 -1604.03 2484.42 -1112.25 2506.94 -1628.94" stroke="#990B1D" stroke-width="0.7609" stroke-miterlimit="10"/>
<path d="M-1260.04 -59.8516C-1260.04 -59.8516 829.822 789.759 1365.33 576.431C1547.37 503.909 1818.55 341.331 1496.64 -55.0907C1489.05 -64.4148 1481.59 -73.6999 1474.22 -82.8888C247.634 -1615.07 2508.24 -1101.6 2506.97 -1627.3" stroke="#990B1D" stroke-width="0.7663" stroke-miterlimit="10"/>
<path d="M-1262.42 -45.8083C-1262.42 -45.8083 832.077 790.347 1367.67 569.438C1549.2 494.559 1814.08 330.133 1493.16 -65.3466C1485.57 -74.6707 1478.12 -83.9556 1470.72 -93.1877C243.074 -1626.08 2532.03 -1090.94 2506.96 -1625.68" stroke="#990B1D" stroke-width="0.7717" stroke-miterlimit="10"/>
<path d="M-1264.77 -31.7544C-1264.77 -31.7544 834.388 790.989 1370.07 562.466C1551.11 485.23 1809.68 318.955 1489.76 -75.6152C1482.18 -84.9726 1474.69 -94.2673 1467.3 -103.499C238.558 -1637.11 2555.89 -1080.28 2506.99 -1624.04" stroke="#990B1D" stroke-width="0.7772" stroke-miterlimit="10"/>
<path d="M-1267.14 -17.7448C-1267.14 -17.7448 836.632 791.61 1372.42 555.439C1552.94 475.879 1805.25 307.766 1486.26 -85.9143C1478.68 -95.2718 1471.19 -104.566 1463.77 -113.842C234.041 -1648.14 2579.71 -1069.64 2507.02 -1622.4" stroke="#990B1D" stroke-width="0.7826" stroke-miterlimit="10"/>
<path d="M-1269.48 -3.69068C-1269.48 -3.69068 838.943 792.252 1374.8 548.457C1554.8 466.573 1800.81 296.579 1482.82 -96.1592C1475.24 -105.517 1467.73 -114.854 1460.3 -124.096C229.491 -1659.18 2603.53 -1058.96 2507.04 -1620.76" stroke="#990B1D" stroke-width="0.788" stroke-miterlimit="10"/>
<path d="M-1271.86 10.3525C-1271.86 10.3525 841.201 792.95 1377.14 541.464C1556.63 457.257 1796.34 285.38 1479.35 -106.448C1471.77 -115.806 1464.26 -125.144 1456.81 -134.429C224.975 -1670.21 2627.36 -1048.31 2507.04 -1619.14" stroke="#990B1D" stroke-width="0.7935" stroke-miterlimit="10"/>
<path d="M-1274.2 24.373C-1274.2 24.373 843.503 793.625 1379.52 534.449C1558.5 447.917 1791.92 274.159 1475.92 -116.727C1468.35 -126.117 1460.84 -135.455 1453.35 -144.75C220.425 -1681.25 2651.22 -1037.66 2507.06 -1617.5" stroke="#990B1D" stroke-width="0.7989" stroke-miterlimit="10"/>
<path d="M-1276.58 38.417C-1276.58 38.417 845.751 794.357 1381.89 527.466C1560.36 438.611 1787.52 262.982 1472.44 -126.982C1464.87 -136.372 1457.33 -145.72 1449.85 -155.048C215.899 -1692.25 2675.03 -1026.98 2507.09 -1615.86" stroke="#990B1D" stroke-width="0.8043" stroke-miterlimit="10"/>
<path d="M-1278.91 52.4365C-1278.91 52.4365 848.076 795.075 1384.28 520.45C1562.25 429.314 1783.09 251.759 1469.02 -137.294C1461.45 -146.685 1453.91 -156.066 1446.4 -165.404C211.349 -1703.29 2698.86 -1016.34 2507.08 -1614.23" stroke="#990B1D" stroke-width="0.8098" stroke-miterlimit="10"/>
<path d="M-1281.29 66.4808C-1281.29 66.4808 850.358 795.817 1386.61 513.492C1564.07 420.031 1778.62 240.596 1465.53 -147.516C1457.93 -156.916 1450.39 -166.297 1442.89 -175.668C206.832 -1714.32 2722.68 -1005.66 2507.11 -1612.59" stroke="#990B1D" stroke-width="0.8152" stroke-miterlimit="10"/>
<path d="M-1283.67 80.524C-1283.67 80.524 852.663 796.601 1388.95 506.498C1565.92 410.758 1774.18 229.407 1462.06 -157.772C1454.46 -167.205 1446.93 -176.586 1439.38 -185.934C202.282 -1725.36 2746.5 -995.017 2507.14 -1610.96" stroke="#990B1D" stroke-width="0.8207" stroke-miterlimit="10"/>
<path d="M-1286.01 94.5444C-1286.01 94.5444 854.968 797.386 1391.33 499.483C1567.81 401.461 1769.76 218.186 1458.6 -168.093C1451.01 -177.527 1443.44 -186.918 1435.9 -196.299C197.756 -1736.36 2770.33 -984.372 2507.15 -1609.28" stroke="#990B1D" stroke-width="0.8261" stroke-miterlimit="10"/>
<path d="M-1288.39 108.588C-1288.39 108.588 857.297 798.213 1393.7 492.5C1569.69 392.197 1765.32 206.997 1455.16 -178.339C1447.56 -187.773 1440 -197.197 1432.44 -206.588C193.206 -1747.4 2794.14 -973.695 2507.15 -1607.66" stroke="#990B1D" stroke-width="0.8315" stroke-miterlimit="10"/>
<path d="M-1290.73 122.641C-1290.73 122.641 859.626 799.041 1396.08 485.517C1571.57 382.968 1760.92 195.819 1451.71 -188.584C1444.12 -198.018 1436.53 -207.452 1428.97 -216.876C188.68 -1758.4 2817.99 -963.007 2507.17 -1606.02" stroke="#990B1D" stroke-width="0.837" stroke-miterlimit="10"/>
<path d="M-1293.1 136.652C-1293.1 136.652 861.955 799.869 1398.43 478.491C1573.43 373.661 1756.46 184.588 1448.26 -198.907C1440.67 -208.374 1433.08 -217.808 1425.49 -227.242C184.14 -1769.47 2841.83 -952.397 2507.2 -1604.38" stroke="#990B1D" stroke-width="0.8424" stroke-miterlimit="10"/>
<path d="M-1295.45 150.705C-1295.45 150.705 864.307 800.74 1400.8 471.509C1575.3 364.431 1752.03 173.4 1444.78 -209.162C1437.2 -218.629 1429.61 -228.063 1421.98 -237.507C179.58 -1780.48 2865.61 -941.728 2507.19 -1602.75" stroke="#990B1D" stroke-width="0.8478" stroke-miterlimit="10"/>
<path d="M-1297.83 164.749C-1297.83 164.749 866.617 801.634 1403.14 464.517C1577.18 355.169 1747.56 162.202 1441.3 -219.416C1433.72 -228.884 1426.11 -238.361 1418.48 -247.804C175.064 -1791.51 2889.47 -931.074 2507.22 -1601.12" stroke="#990B1D" stroke-width="0.8533" stroke-miterlimit="10"/>
<path d="M-1300.16 178.769C-1300.16 178.769 869.002 802.515 1405.56 457.51C1579.1 345.914 1743.2 151.033 1437.91 -229.719C1430.33 -239.186 1422.72 -248.664 1415.07 -258.15C170.547 -1802.54 2913.3 -920.43 2507.25 -1599.48" stroke="#990B1D" stroke-width="0.8587" stroke-miterlimit="10"/>
<path d="M-1302.54 192.813C-1302.54 192.813 871.378 803.429 1407.9 450.518C1580.97 336.685 1738.73 139.836 1434.44 -239.974C1426.86 -249.475 1419.22 -258.961 1411.57 -268.448C165.997 -1813.58 2937.12 -909.752 2507.28 -1597.84" stroke="#990B1D" stroke-width="0.8641" stroke-miterlimit="10"/>
<path d="M-1304.89 206.866C-1304.89 206.866 873.778 804.386 1410.27 443.535C1582.84 327.455 1734.29 128.647 1430.96 -250.23C1423.36 -259.74 1415.74 -269.217 1408.07 -278.747C161.481 -1824.62 2960.94 -899.108 2507.27 -1596.21" stroke="#83162F" stroke-width="0.8696" stroke-miterlimit="10"/>
<path d="M-1307.26 220.877C-1307.26 220.877 876.155 805.301 1412.62 436.51C1584.73 318.192 1729.87 117.427 1427.51 -260.551C1419.9 -270.062 1412.26 -279.582 1404.59 -289.112C156.941 -1835.69 2984.77 -888.463 2507.27 -1594.62" stroke="#83162F" stroke-width="0.875" stroke-miterlimit="10"/>
<path d="M-1309.64 234.92C-1309.64 234.92 878.52 806.247 1414.99 429.527C1586.63 308.971 1725.43 106.238 1424.06 -270.797C1416.46 -280.308 1408.82 -289.828 1401.11 -299.368C152.404 -1846.65 3008.62 -877.777 2507.31 -1592.9" stroke="#83162F" stroke-width="0.8804" stroke-miterlimit="10"/>
<path d="M-1311.98 248.974C-1311.98 248.974 880.944 807.248 1417.37 422.545C1588.56 299.794 1721 95.0501 1420.62 -281.042C1413.02 -290.586 1405.35 -300.116 1397.64 -309.656C147.855 -1857.7 3032.44 -867.132 2507.35 -1591.3" stroke="#83162F" stroke-width="0.8859" stroke-miterlimit="10"/>
<path d="M-1314.35 262.984C-1314.35 262.984 883.386 808.181 1419.72 415.518C1590.45 290.53 1716.58 83.8282 1417.13 -291.375C1409.53 -300.918 1401.86 -310.448 1394.13 -320.031C143.338 -1868.73 3056.26 -856.455 2507.34 -1589.67" stroke="#83162F" stroke-width="0.8913" stroke-miterlimit="10"/>
<path d="M-1316.7 277.038C-1316.7 277.038 885.81 809.182 1422.09 408.536C1592.35 281.311 1712.14 72.6405 1413.69 -301.62C1406.09 -311.163 1398.43 -320.727 1390.66 -330.319C138.789 -1879.77 3080.09 -845.81 2507.37 -1588.03" stroke="#83162F" stroke-width="0.8967" stroke-miterlimit="10"/>
<path d="M-1319.07 291.049C-1319.07 291.049 888.266 810.192 1424.44 401.511C1594.26 272.091 1707.68 61.4096 1410.22 -311.908C1402.62 -321.452 1394.93 -331.025 1387.17 -340.651C134.262 -1890.76 3103.91 -835.165 2507.39 -1586.36" stroke="#83162F" stroke-width="0.9022" stroke-miterlimit="10"/>
<path d="M-1321.41 305.101C-1321.41 305.101 890.722 811.201 1426.84 394.537C1596.19 262.913 1703.28 50.2306 1406.82 -322.178C1399.22 -331.721 1391.54 -341.328 1383.74 -350.93C129.712 -1901.81 3127.73 -824.488 2507.38 -1584.73" stroke="#83162F" stroke-width="0.9076" stroke-miterlimit="10"/>
<path d="M-1323.79 319.145C-1323.79 319.145 893.169 812.245 1429.19 387.545C1598.1 253.693 1698.85 39.0431 1403.31 -332.442C1395.72 -342.019 1388 -351.635 1380.21 -361.238C125.162 -1912.85 3151.56 -813.844 2507.41 -1583.1" stroke="#731E3C" stroke-width="0.913" stroke-miterlimit="10"/>
<path d="M-1326.13 333.165C-1326.13 333.165 895.693 813.274 1431.57 380.529C1600.04 244.482 1694.42 27.8212 1399.88 -342.721C1392.26 -352.308 1384.57 -361.915 1376.75 -371.56C120.646 -1923.88 3175.42 -803.19 2507.43 -1581.46" stroke="#731E3C" stroke-width="0.9185" stroke-miterlimit="10"/>
<path d="M-1328.51 347.21C-1328.51 347.21 898.173 814.328 1433.91 373.537C1601.94 235.296 1689.96 16.624 1396.41 -353.009C1388.79 -362.596 1381.08 -372.246 1373.26 -381.891C116.106 -1934.95 3199.21 -792.555 2507.44 -1579.86" stroke="#731E3C" stroke-width="0.9239" stroke-miterlimit="10"/>
<path d="M-1330.85 361.262C-1330.85 361.262 900.686 815.39 1436.27 366.587C1603.86 226.119 1685.55 5.47829 1392.96 -363.222C1385.34 -372.809 1377.63 -382.459 1369.78 -392.147C111.569 -1945.92 3223.06 -781.868 2507.45 -1578.19" stroke="#731E3C" stroke-width="0.9293" stroke-miterlimit="10"/>
<path d="M-1333.22 375.273C-1333.22 375.273 903.199 816.454 1438.66 359.572C1605.84 216.918 1681.11 -5.70945 1389.49 -373.51C1381.88 -383.131 1374.17 -392.78 1366.29 -402.479C107.053 -1956.95 3246.87 -771.19 2507.48 -1576.55" stroke="#731E3C" stroke-width="0.9348" stroke-miterlimit="10"/>
<path d="M-1335.6 389.316C-1335.6 389.316 905.713 817.516 1441 352.579C1607.74 207.731 1676.64 -16.9076 1386.02 -383.799C1378.41 -393.42 1370.67 -403.079 1362.79 -412.778C102.504 -1967.99 3270.7 -760.546 2507.51 -1574.92" stroke="#731E3C" stroke-width="0.9402" stroke-miterlimit="10"/>
<path d="M-1337.95 403.37C-1337.95 403.37 908.284 818.632 1443.37 345.596C1609.7 198.564 1672.21 -28.0954 1382.58 -394.045C1374.97 -403.665 1367.24 -413.358 1359.33 -423.066C97.9872 -1979.02 3294.53 -749.902 2507.5 -1573.29" stroke="#731E3C" stroke-width="0.9457" stroke-miterlimit="10"/>
<path d="M-1340.32 417.38C-1340.32 417.38 910.83 819.705 1445.72 338.57C1611.61 189.344 1667.79 -39.3173 1379.11 -404.334C1371.5 -413.954 1363.74 -423.656 1355.84 -433.398C93.4367 -1990.06 3318.34 -739.224 2507.53 -1571.65" stroke="#592B51" stroke-width="0.9511" stroke-miterlimit="10"/>
<path d="M-1342.66 431.434C-1342.66 431.434 913.4 820.821 1448.09 331.588C1613.57 180.176 1663.35 -50.505 1375.65 -414.622C1368.05 -424.275 1360.28 -433.978 1352.35 -443.729C88.9104 -2001.06 3342.2 -728.57 2507.56 -1570.01" stroke="#592B51" stroke-width="0.9565" stroke-miterlimit="10"/>
<path d="M-1345.04 445.478C-1345.04 445.478 915.971 821.937 1450.47 324.606C1615.53 171.009 1658.92 -61.6928 1372.21 -424.867C1364.6 -434.521 1356.8 -444.233 1348.88 -454.018C84.3609 -2012.1 3366.03 -717.925 2507.57 -1568.34" stroke="#592B51" stroke-width="0.962" stroke-miterlimit="10"/>
<path d="M-1347.38 459.498C-1347.38 459.498 918.585 823.029 1452.85 317.589C1617.51 161.808 1654.53 -72.905 1368.77 -435.146C1361.14 -444.81 1353.38 -454.546 1345.42 -464.34C79.8446 -2023.13 3389.85 -707.248 2507.57 -1566.71" stroke="#592B51" stroke-width="0.9674" stroke-miterlimit="10"/>
<path d="M-1349.76 473.542C-1349.76 473.542 921.155 824.145 1455.19 310.597C1619.44 152.632 1650.06 -84.1025 1365.31 -445.435C1357.67 -455.098 1349.88 -464.844 1341.92 -474.638C75.2941 -2034.17 3413.67 -696.604 2507.59 -1565.08" stroke="#592B51" stroke-width="0.9728" stroke-miterlimit="10"/>
<path d="M-1352.1 487.561C-1352.1 487.561 924.726 826.17 1457.57 303.581C1621.68 143.728 1645.63 -95.3244 1361.84 -455.724C1354.21 -465.42 1346.42 -475.166 1338.43 -484.97C70.7776 -2045.2 3437.5 -685.96 2507.62 -1563.44" stroke="#592B51" stroke-width="0.9783" stroke-miterlimit="10"/>
<path d="M-1354.47 501.605C-1354.47 501.605 927.136 827.094 1459.91 296.589C1623.57 134.465 1641.2 -106.512 1358.36 -465.979C1350.74 -475.675 1342.95 -485.421 1334.93 -495.268C66.2516 -2056.2 3461.31 -675.282 2507.65 -1561.8" stroke="#592B51" stroke-width="0.9837" stroke-miterlimit="10"/>
<path d="M-1356.82 515.658C-1356.82 515.658 929.545 828.017 1462.32 289.615C1625.51 125.254 1636.8 -117.691 1354.96 -476.248C1347.34 -485.945 1339.52 -495.734 1331.51 -505.581C61.745 -2067.27 3485.17 -664.628 2507.67 -1560.16" stroke="#592B51" stroke-width="0.9891" stroke-miterlimit="10"/>
<path d="M-1359.19 529.669C-1359.19 529.669 931.964 828.908 1464.67 282.59C1627.39 115.991 1632.34 -128.922 1351.5 -486.536C1343.87 -496.233 1336.06 -506.022 1328.02 -515.912C57.1848 -2078.27 3508.96 -653.96 2507.67 -1558.54" stroke="#463561" stroke-width="0.9946" stroke-miterlimit="10"/>
<path d="M-1361.57 543.713C-1361.57 543.713 2596.39 1036.92 1324.52 -526.211C52.6448 -2089.35 3532.79 -643.349 2507.66 -1556.91" stroke="#463561" stroke-miterlimit="10"/>
<path d="M-1335.61 556.721C-1335.61 556.721 -665.194 612.945 55.2382 604.947C975.424 592.86 1925.38 398.951 1463.62 -354.927C1427.88 -412.78 1384.22 -473.753 1332.01 -538.032C58.9253 -2106.19 3541.3 -647.52 2526.31 -1549.85" stroke="#463561" stroke-miterlimit="10"/>
<path d="M-1309.64 569.696C-1309.64 569.696 -665.253 595.361 60.886 593.962C982.339 588.549 1935.95 385.389 1471.55 -366.545C1435.6 -424.787 1391.56 -485.691 1339.51 -549.921C65.1818 -2123.09 3549.78 -651.734 2544.92 -1542.79" stroke="#463561" stroke-miterlimit="10"/>
<path d="M-1283.68 582.704C-1283.68 582.704 -665.324 579.911 66.523 583.011C989.229 586.911 1945.04 372.771 1479.47 -378.13C1443.15 -436.699 1398.87 -497.638 1347 -561.742C71.4808 -2140 3558.28 -655.905 2563.54 -1535.78" stroke="#463561" stroke-miterlimit="10"/>
<path d="M-1257.75 595.668C-1257.75 595.668 -665.426 562.966 72.1277 572.05C996.076 583.449 1954.07 360.134 1487.37 -389.725C1450.7 -448.611 1406.16 -509.552 1354.46 -573.608C77.7711 -2156.88 3566.76 -660.12 2582.16 -1528.73" stroke="#463561" stroke-miterlimit="10"/>
<path d="M-1231.78 608.643C-1231.78 608.643 -665.542 545.945 77.7756 561.065C1002.96 579.854 1963.14 347.506 1495.31 -401.376C1458.3 -460.58 1413.52 -521.556 1361.97 -585.496C84.0613 -2173.76 3575.27 -664.324 2600.81 -1521.66" stroke="#463561" stroke-miterlimit="10"/>
<path d="M-1205.82 621.651C-1205.82 621.651 -665.634 528.967 83.4134 550.113C1009.8 576.282 1972.16 334.903 1503.23 -412.961C1465.9 -472.516 1420.82 -533.47 1369.46 -597.352C90.3179 -2190.65 3583.75 -668.539 2619.42 -1514.61" stroke="#463561" stroke-miterlimit="10"/>
<path d="M-1179.86 634.625C-1179.86 634.625 -665.741 511.912 89.0505 539.162C1016.63 572.634 1981.17 322.332 1511.12 -424.556C1473.44 -484.428 1428.12 -545.417 1376.92 -609.183C96.617 -2207.57 3592.26 -672.743 2638.03 -1507.56" stroke="#373D6E" stroke-miterlimit="10"/>
<path d="M-1153.93 647.624C-1153.93 647.624 -665.914 494.839 94.6553 528.201C1023.45 568.91 1990.11 309.743 1519.02 -436.151C1480.99 -496.34 1435.42 -557.331 1384.38 -621.048C102.907 -2224.45 3600.73 -676.924 2656.66 -1500.54" stroke="#373D6E" stroke-miterlimit="10"/>
<path d="M-1127.96 660.598C-1127.96 660.598 -666.044 477.741 100.303 517.216C1030.27 565.152 1999.1 297.129 1526.95 -447.769C1488.6 -508.309 1442.74 -569.312 1391.88 -632.903C109.197 -2241.33 3609.21 -681.139 2675.27 -1493.49" stroke="#373D6E" stroke-miterlimit="10"/>
<path d="M-1102 673.606C-1102 673.606 -666.164 460.61 105.941 506.264C1037.11 561.36 2008.06 284.582 1534.88 -459.387C1496.19 -520.245 1450.08 -581.249 1399.38 -644.792C115.454 -2258.22 3617.73 -685.344 2693.92 -1486.43" stroke="#373D6E" stroke-miterlimit="10"/>
<path d="M-1076.04 686.581C-1076.04 686.581 -666.299 443.403 111.578 495.314C1043.92 557.527 2017 272.026 1542.81 -470.971C1503.74 -532.156 1457.42 -593.186 1406.87 -656.613C121.753 -2275.14 3626.21 -689.557 2712.53 -1479.38" stroke="#373D6E" stroke-miterlimit="10"/>
<path d="M-1050.11 699.579C-1050.11 699.579 -666.475 426.22 117.183 484.353C1050.71 553.616 2025.89 259.493 1550.7 -482.566C1511.3 -544.101 1464.71 -605.1 1414.33 -668.478C128.043 -2292.02 3634.72 -693.761 2731.16 -1472.36" stroke="#373D6E" stroke-miterlimit="10"/>
<path d="M-1024.14 712.554C-1024.14 712.554 -666.59 408.946 122.831 473.368C1057.52 549.672 2034.79 246.927 1558.63 -494.184C1518.89 -556.037 1472.03 -617.08 1421.83 -680.333C134.3 -2308.91 3643.19 -697.942 2749.77 -1465.31" stroke="#373D6E" stroke-miterlimit="10"/>
<path d="M-998.184 725.562C-998.184 725.562 -666.748 391.695 128.458 462.45C1064.33 545.727 2043.67 234.427 1566.55 -505.736C1526.46 -567.906 1479.35 -628.951 1429.32 -692.155C140.589 -2325.79 3651.7 -702.147 2768.38 -1458.26" stroke="#373D6E" stroke-miterlimit="10"/>
<path d="M-972.216 738.536C-972.216 738.536 -666.876 374.344 134.106 451.465C1071.16 541.683 2052.56 221.894 1574.49 -517.387C1534.07 -579.909 1486.71 -640.955 1436.82 -704.043C146.889 -2342.7 3660.21 -706.352 2787.04 -1451.23" stroke="#23477E" stroke-miterlimit="10"/>
<path d="M-946.291 751.534C-946.291 751.534 -667.047 357.017 139.71 440.504C1077.93 537.619 2061.37 209.375 1582.38 -528.982C1541.59 -591.831 1493.97 -652.879 1444.29 -715.908C153.179 -2359.58 3668.69 -710.566 2805.64 -1444.15" stroke="#23477E" stroke-miterlimit="10"/>
<path d="M-920.322 764.509C-920.322 764.509 -667.198 339.623 145.358 429.519C1084.76 533.465 2070.23 196.832 1590.28 -540.61C1549.16 -603.809 1501.29 -664.859 1451.75 -727.773C159.436 -2376.48 3677.16 -714.747 2824.27 -1437.13" stroke="#23477E" stroke-miterlimit="10"/>
<path d="M-894.365 777.517C-894.365 777.517 -667.318 322.24 150.985 418.601C1091.58 529.378 2079.02 184.379 1598.2 -552.161C1556.73 -615.678 1508.6 -676.73 1459.23 -739.562C165.735 -2393.39 3685.64 -718.961 2842.88 -1430.08" stroke="#23477E" stroke-miterlimit="10"/>
<path d="M-868.397 790.491C-868.397 790.491 -667.45 304.779 156.633 407.617C1098.43 525.157 2087.84 171.86 1606.14 -563.813C1564.34 -627.681 1515.93 -688.744 1466.74 -751.484C172.025 -2410.27 3694.16 -723.166 2861.49 -1423.03" stroke="#23477E" stroke-miterlimit="10"/>
<path d="M-842.471 803.49C-842.471 803.49 -667.615 287.31 162.238 396.656C1105.2 520.951 2096.61 159.365 1614.03 -575.407C1571.86 -639.602 1523.23 -700.657 1474.19 -763.314C178.282 -2427.16 3702.64 -727.38 2880.14 -1415.96" stroke="#23477E" stroke-miterlimit="10"/>
<path d="M-816.504 816.464C-816.504 816.464 -667.761 269.772 167.875 385.704C1112.03 516.685 2105.37 146.902 1621.96 -586.992C1579.44 -651.505 1530.57 -712.595 1481.69 -775.171C184.571 -2444.04 3711.15 -731.585 2898.77 -1408.95" stroke="#23477E" stroke-miterlimit="10"/>
<path d="M-790.535 829.439C-790.535 829.439 -667.864 252.212 173.523 374.72C1118.88 512.355 2114.14 134.407 1629.89 -598.61C1587.05 -663.474 1537.87 -724.542 1489.19 -787.025C190.872 -2460.96 3719.62 -735.766 2917.38 -1401.89" stroke="#23477E" stroke-miterlimit="10"/>
<path d="M-764.577 842.447C-764.577 842.447 -667.967 234.652 179.161 363.769C1125.72 508.058 2122.9 121.945 1637.81 -610.195C1594.63 -675.376 1545.21 -736.479 1496.68 -798.88C197.161 -2477.84 3728.13 -739.97 2935.99 -1394.84" stroke="#10518E" stroke-miterlimit="10"/>
<path d="M-738.643 855.412C-738.643 855.412 -668.118 217.005 184.774 352.774C1132.55 503.651 2131.63 109.473 1645.72 -621.856C1602.17 -687.398 1552.53 -748.46 1504.16 -810.779C203.417 -2494.73 3736.61 -744.184 2954.61 -1387.79" stroke="#10518E" stroke-miterlimit="10"/>
<path d="M-712.684 868.42C-712.684 868.42 -668.21 199.411 190.403 341.856C1139.41 499.287 2140.34 97.067 1653.64 -633.408C1609.75 -699.267 1559.86 -760.364 1511.64 -822.601C209.708 -2511.61 3745.09 -748.399 2973.25 -1380.73" stroke="#10518E" stroke-miterlimit="10"/>
<path d="M-686.715 881.395C-686.715 881.395 -668.307 181.708 196.051 330.871C1146.29 494.856 2149.07 84.5954 1661.54 -645.036C1617.32 -711.245 1567.13 -772.321 1519.11 -834.465C216.007 -2528.53 3753.6 -752.603 2991.88 -1373.71" stroke="#10518E" stroke-miterlimit="10"/>
<path d="M-660.757 894.403C-660.757 894.403 -668.414 164.038 201.688 319.92C1153.14 490.383 2157.74 72.1803 1669.46 -656.62C1624.86 -723.157 1574.47 -784.258 1526.6 -846.32C222.264 -2545.42 3762.07 -756.784 3010.49 -1366.66" stroke="#10518E" stroke-miterlimit="10"/>

</g>
</g>
</g>
<defs>
<clipPath id="clip0_556_7162">
<rect width="1440" height="666" fill="white"/>
</clipPath>
<clipPath id="clip1_556_7162">
<rect width="4186.11" height="3415.11" fill="white" transform="translate(-542.234 -2526.47) rotate(16.3417)"/>
</clipPath>
</defs>
</svg>
